<?xml version="1.0" encoding="UTF-8" standalone="no"?>
<!-- Generator: Adobe Illustrator 17.1.0, SVG Export Plug-In . SVG Version: 6.00 Build 0)  -->

<svg
   xmlns:dc="http://purl.org/dc/elements/1.1/"
   xmlns:cc="http://creativecommons.org/ns#"
   xmlns:rdf="http://www.w3.org/1999/02/22-rdf-syntax-ns#"
   xmlns:svg="http://www.w3.org/2000/svg"
   xmlns="http://www.w3.org/2000/svg"
   xmlns:sodipodi="http://sodipodi.sourceforge.net/DTD/sodipodi-0.dtd"
   xmlns:inkscape="http://www.inkscape.org/namespaces/inkscape"
   version="1.1"
   id="Facebook"
   x="0px"
   y="0px"
   viewBox="0 0 128 128"
   enable-background="new 0 0 128 128"
   xml:space="preserve"
   sodipodi:docname="Facebook.svg"
   inkscape:version="0.92.1 r15371"><metadata
     id="metadata11"><rdf:RDF><cc:Work
         rdf:about=""><dc:format>image/svg+xml</dc:format><dc:type
           rdf:resource="http://purl.org/dc/dcmitype/StillImage" /><dc:title></dc:title></cc:Work></rdf:RDF></metadata><defs
     id="defs9" /><sodipodi:namedview
     pagecolor="#ffffff"
     bordercolor="#666666"
     borderopacity="1"
     objecttolerance="10"
     gridtolerance="10"
     guidetolerance="10"
     inkscape:pageopacity="0"
     inkscape:pageshadow="2"
     inkscape:window-width="640"
     inkscape:window-height="480"
     id="namedview7"
     showgrid="false"
     inkscape:zoom="2.4991455"
     inkscape:cx="64"
     inkscape:cy="64"
     inkscape:window-x="0"
     inkscape:window-y="0"
     inkscape:window-maximized="0"
     inkscape:current-layer="Facebook" /><g
     id="g4"><rect
       id="facebook-back"
       fill="#3A5A99"
       width="128"
       height="128" /><path
       id="facebook-facebook"
       fill="#FFFFFF"
       d="M95.8838,28.1602H32.1162c-2.1855,0-3.956,1.7705-3.956,3.956v63.7676   c0,2.1846,1.7705,3.956,3.956,3.956h34.3301V72.082h-9.3408V61.2637h9.3408v-7.9776c0-9.2588,5.6543-14.2998,13.9141-14.2998   c3.956,0,7.3554,0.2945,8.3466,0.4263v9.6753l-5.7275,0.0024c-4.4922,0-5.3613,2.1348-5.3613,5.2666v6.9068h10.7119L86.9355,72.082   h-9.3173v27.7578h18.2656c2.1846,0,3.956-1.7714,3.956-3.956V32.1162C99.8398,29.9307,98.0684,28.1602,95.8838,28.1602z" /></g></svg>